<svg width="22" height="22" viewBox="0 0 22 22" fill="none" xmlns="http://www.w3.org/2000/svg">
<g id="facebook">
<path id="Vector" d="M16.7687 8.69027C16.6847 8.56587 16.573 8.42693 16.4404 8.3566C16.3077 8.28627 16.1598 8.24961 16.0097 8.24984H13.7502V6.4165H16.03C16.2731 6.4165 16.5063 6.31992 16.6782 6.14802C16.8501 5.97611 16.9467 5.74296 16.9467 5.49984V1.83317C16.9467 1.59005 16.8501 1.3569 16.6782 1.18499C16.5063 1.01308 16.2731 0.916504 16.03 0.916504H12.8335C11.4234 0.916504 10.0711 1.47665 9.07404 2.47372C8.07698 3.47079 7.51683 4.8231 7.51683 6.23317V8.24984H5.50016C5.25704 8.24984 5.02389 8.34642 4.85198 8.51832C4.68008 8.69023 4.5835 8.92339 4.5835 9.1665V12.8332C4.5835 13.0763 4.68008 13.3095 4.85198 13.4813C5.02389 13.6532 5.25704 13.7498 5.50016 13.7498H7.51683V20.1665C7.51683 20.4096 7.61341 20.6428 7.78531 20.8147C7.95722 20.9866 8.19038 21.0832 8.4335 21.0832H12.8335C13.0766 21.0832 13.3098 20.9866 13.4817 20.8147C13.6535 20.6428 13.7502 20.4096 13.7502 20.1665V13.7498H16.0097C16.1933 13.75 16.3727 13.695 16.5246 13.5921C16.6766 13.4891 16.7942 13.3429 16.8622 13.1723C16.8622 13.1723 16.8622 9.85309 16.8622 9.50567C16.8622 9.15823 16.8528 8.81467 16.7687 8.69027ZM15.0644 11.9165H12.8335C12.5904 11.9165 12.3572 12.0131 12.1853 12.185C12.0134 12.3569 11.9168 12.5901 11.9168 12.8332V19.2498H9.35016V12.8332C9.35016 12.5901 9.25355 12.3569 9.08168 12.185C8.90977 12.0131 8.67661 11.9165 8.4335 11.9165H6.41683V10.0832H8.4335C8.67661 10.0832 8.90977 9.98655 9.08168 9.81468C9.25355 9.6428 9.35016 9.4096 9.35016 9.1665V6.23317C9.35255 5.31008 9.72031 4.42549 10.3731 3.77275C11.0258 3.12002 11.9104 2.75226 12.8335 2.74984H15.1133V4.58317H14.1168C13.8064 4.53795 13.4901 4.55693 13.1874 4.63892C12.8846 4.72091 12.6019 4.86417 12.3568 5.05984C12.2081 5.21558 12.0924 5.39983 12.0167 5.60149C11.9411 5.80313 11.9071 6.01802 11.9168 6.23317V9.1665C11.9168 9.4096 12.0134 9.6428 12.1853 9.81468C12.3572 9.98655 12.5904 10.0832 12.8335 10.0832H15.0644V11.9165Z" fill="url(#paint0_linear_3338_1219)"/>
</g>
<defs>
<linearGradient id="paint0_linear_3338_1219" x1="10.7651" y1="0.916504" x2="10.7651" y2="21.0832" gradientUnits="userSpaceOnUse">
<stop stop-color="#94bc6c"/>
<stop offset="1" stop-color="#7ba650"/>
</linearGradient>
</defs>
</svg>
