<svg width="23" height="22" viewBox="0 0 23 22" fill="none" xmlns="http://www.w3.org/2000/svg">
<g id="instagram">
<path id="Vector" d="M11.141 6.41683C10.2345 6.41683 9.3484 6.68563 8.59467 7.18926C7.84094 7.69288 7.25349 8.4087 6.90658 9.24621C6.55968 10.0837 6.46892 11.0052 6.64576 11.8944C6.82262 12.7834 7.25913 13.6001 7.90013 14.241C8.54112 14.8821 9.35775 15.3186 10.2468 15.4954C11.136 15.6723 12.0575 15.5815 12.895 15.2346C13.7324 14.8877 14.4483 14.3003 14.9519 13.5466C15.4556 12.7928 15.7244 11.9067 15.7244 11.0002C15.7244 9.78457 15.2415 8.6188 14.3819 7.75926C13.5224 6.89971 12.3566 6.41683 11.141 6.41683ZM11.141 13.7502C10.5972 13.7502 10.0654 13.5889 9.61322 13.2867C9.16098 12.9846 8.8085 12.555 8.60036 12.0526C8.39222 11.5501 8.33776 10.9971 8.44387 10.4636C8.54998 9.93023 8.81189 9.44018 9.19649 9.05562C9.58105 8.67102 10.0711 8.40911 10.6045 8.303C11.138 8.1969 11.6909 8.25135 12.1935 8.45949C12.6959 8.66763 13.1254 9.02011 13.4276 9.47235C13.7298 9.92455 13.891 10.4563 13.891 11.0002C13.891 11.7295 13.6013 12.429 13.0856 12.9447C12.5698 13.4604 11.8703 13.7502 11.141 13.7502ZM15.7244 5.50016C15.543 5.50016 15.3659 5.55393 15.2151 5.65465C15.0644 5.75537 14.9468 5.89854 14.8775 6.06604C14.8081 6.23353 14.7899 6.41785 14.8253 6.59566C14.8607 6.77348 14.9479 6.93681 15.0762 7.06501C15.2043 7.19321 15.3677 7.28051 15.5455 7.31589C15.7234 7.35125 15.9077 7.3331 16.0752 7.26372C16.2426 7.19434 16.3858 7.07685 16.4866 6.9261C16.5873 6.77536 16.641 6.59813 16.641 6.41683C16.641 6.17371 16.5444 5.94056 16.3725 5.76865C16.2007 5.59674 15.9675 5.50016 15.7244 5.50016ZM20.2527 7.5535C20.2375 6.77013 20.0887 5.99512 19.8127 5.26183C19.5568 4.59456 19.1633 3.98857 18.658 3.48322C18.1526 2.97786 17.5466 2.58445 16.8794 2.3285C16.1461 2.05249 15.3711 1.90369 14.5877 1.8885C13.6985 1.8335 13.4052 1.8335 11.141 1.8335C8.87687 1.8335 8.58353 1.8335 7.69437 1.8885C6.911 1.90369 6.13599 2.05249 5.4027 2.3285C4.73543 2.58445 4.12944 2.97786 3.62409 3.48322C3.11873 3.98857 2.72532 4.59456 2.46937 5.26183C2.19336 5.99512 2.04455 6.77013 2.02937 7.5535C1.97437 8.45183 1.97437 8.74516 1.97437 11.0002C1.97437 13.2552 1.97437 13.5485 2.02937 14.4468C2.04455 15.2302 2.19336 16.0053 2.46937 16.7385C2.72532 17.4057 3.11873 18.0117 3.62409 18.5171C4.12944 19.0225 4.73543 19.4159 5.4027 19.6718C6.13599 19.9478 6.911 20.0966 7.69437 20.1118C8.61103 20.1118 8.87687 20.1668 11.141 20.1668C13.4052 20.1668 13.6985 20.1668 14.5877 20.1118C15.3711 20.0966 16.1461 19.9478 16.8794 19.6718C17.5466 19.4159 18.1526 19.0225 18.658 18.5171C19.1633 18.0117 19.5568 17.4057 19.8127 16.7385C20.0887 16.0053 20.2375 15.2302 20.2527 14.4468C20.2527 13.5302 20.3077 13.2552 20.3077 11.0002C20.3077 8.74516 20.3077 8.45183 20.2527 7.5535ZM18.4194 14.3643C18.4033 14.946 18.295 15.5215 18.0985 16.0693C17.9361 16.5023 17.6793 16.8937 17.3469 17.2152C17.0273 17.5477 16.6352 17.8019 16.201 17.9577C15.6519 18.1622 15.0726 18.2737 14.4869 18.2877C13.6252 18.2877 13.3594 18.3335 11.1319 18.3335C8.90437 18.3335 8.6477 18.3335 7.78603 18.3335C7.20122 18.3184 6.62255 18.2101 6.07187 18.0127C5.63889 17.8502 5.24748 17.5935 4.92603 17.261C4.59342 16.9414 4.33929 16.5493 4.18353 16.1152C3.97985 15.569 3.86834 14.9929 3.85353 14.4102C3.85353 13.4935 3.85353 13.2643 3.85353 11.046C3.85353 8.82766 3.85353 8.56183 3.85353 7.68183C3.86934 7.09627 3.9808 6.51724 4.18353 5.96766C4.34171 5.53741 4.5956 5.14873 4.92603 4.831C5.24556 4.49838 5.63774 4.24426 6.07187 4.0885C6.62094 3.88399 7.20027 3.77246 7.78603 3.7585C8.6477 3.66683 8.91353 3.66683 11.141 3.66683C13.3685 3.66683 13.6344 3.66683 14.496 3.66683C15.0846 3.6818 15.6669 3.79327 16.2194 3.99683C16.6496 4.15501 17.0383 4.4089 17.356 4.73933C17.6886 5.05886 17.9428 5.45104 18.0985 5.88516C18.3229 6.44301 18.4501 7.03519 18.4744 7.636C18.4744 8.55266 18.5202 8.78183 18.5202 11.0002C18.5202 13.2185 18.4744 13.4843 18.4744 14.3643H18.4194Z" fill="url(#paint0_linear_3338_1217)"/>
</g>
<defs>
<linearGradient id="paint0_linear_3338_1217" x1="11.141" y1="1.8335" x2="11.141" y2="20.1668" gradientUnits="userSpaceOnUse">
<stop stop-color="#94bc6c"/>
<stop offset="1" stop-color="#7ba650"/>
</linearGradient>
</defs>
</svg>
