<svg width="30" height="30" viewBox="0 0 30 30" fill="none" xmlns="http://www.w3.org/2000/svg">
<g id="Frame 297">
<path id="Vector" d="M22.2054 15.7537C22.0972 15.6617 21.9661 15.6028 21.827 15.5837C21.6878 15.5646 21.5463 15.5861 21.4185 15.6457C20.626 16.0189 19.7643 16.211 18.8928 16.2087C17.2806 16.2067 15.7346 15.5489 14.5918 14.3788C13.449 13.2087 12.8022 11.6211 12.7923 9.96219C12.7957 9.44229 12.8586 8.92462 12.9797 8.41985C13.0053 8.28531 12.9957 8.14615 12.9517 8.01672C12.9078 7.88729 12.8311 7.77225 12.7295 7.68348C12.628 7.5947 12.5053 7.53539 12.374 7.51165C12.2428 7.48791 12.1078 7.5006 11.9829 7.54842C10.808 8.09203 9.78668 8.93403 9.01489 9.99534C8.2431 11.0566 7.74616 12.3024 7.57077 13.6156C7.39538 14.9288 7.54728 16.2663 8.01221 17.5025C8.47714 18.7387 9.23984 19.833 10.2287 20.6826C11.2175 21.5322 12.3999 22.1092 13.665 22.3594C14.93 22.6096 16.2361 22.5248 17.4606 22.113C18.685 21.7011 19.7876 20.9758 20.6648 20.005C21.542 19.0342 22.165 17.85 22.4752 16.5634C22.513 16.4161 22.5075 16.2606 22.4595 16.1165C22.4115 15.9724 22.323 15.8462 22.2054 15.7537ZM15.0856 20.9129C13.8279 20.9037 12.6036 20.4948 11.5804 19.742C10.5573 18.9892 9.78526 17.9295 9.37007 16.7077C8.95489 15.486 8.91685 14.1621 9.26115 12.9173C9.60545 11.6725 10.3153 10.5676 11.2934 9.75398V9.96219C11.2954 12.0355 12.0967 14.0233 13.5214 15.4893C14.9461 16.9553 16.8779 17.7799 18.8928 17.7819C19.4218 17.7839 19.9495 17.727 20.4667 17.6122C19.9495 18.619 19.175 19.4614 18.2267 20.0485C17.2784 20.6356 16.1923 20.9451 15.0856 20.9437V20.9129Z" fill="white"/>
</g>
</svg>
