<svg width="28" height="28" viewBox="0 0 28 28" fill="none" xmlns="http://www.w3.org/2000/svg">
<g id="sun">
<path id="Vector" d="M6.57992 19.8333L5.75159 20.6617C5.53429 20.8803 5.41233 21.176 5.41233 21.4842C5.41233 21.7924 5.53429 22.0881 5.75159 22.3067C5.97017 22.524 6.26587 22.6459 6.57409 22.6459C6.8823 22.6459 7.178 22.524 7.39659 22.3067L8.22492 21.4783C8.41605 21.2551 8.51592 20.9681 8.50458 20.6744C8.49324 20.3808 8.37152 20.1023 8.16374 19.8945C7.95597 19.6867 7.67744 19.565 7.38381 19.5537C7.09019 19.5423 6.8031 19.6422 6.57992 19.8333ZM5.83325 14C5.83325 13.6906 5.71034 13.3938 5.49154 13.175C5.27275 12.9563 4.976 12.8333 4.66659 12.8333H3.49992C3.1905 12.8333 2.89375 12.9563 2.67496 13.175C2.45617 13.3938 2.33325 13.6906 2.33325 14C2.33325 14.3094 2.45617 14.6062 2.67496 14.825C2.89375 15.0437 3.1905 15.1667 3.49992 15.1667H4.66659C4.976 15.1667 5.27275 15.0437 5.49154 14.825C5.71034 14.6062 5.83325 14.3094 5.83325 14ZM13.9999 5.83333C14.3093 5.83333 14.6061 5.71042 14.8249 5.49162C15.0437 5.27283 15.1666 4.97609 15.1666 4.66667V3.5C15.1666 3.19058 15.0437 2.89383 14.8249 2.67504C14.6061 2.45625 14.3093 2.33333 13.9999 2.33333C13.6905 2.33333 13.3938 2.45625 13.175 2.67504C12.9562 2.89383 12.8333 3.19058 12.8333 3.5V4.66667C12.8333 4.97609 12.9562 5.27283 13.175 5.49162C13.3938 5.71042 13.6905 5.83333 13.9999 5.83333ZM6.57992 8.225C6.79722 8.44054 7.09052 8.56204 7.39659 8.56333C7.55013 8.56422 7.70233 8.53479 7.84448 8.47673C7.98662 8.41867 8.11591 8.33313 8.22492 8.225C8.44221 8.00641 8.56418 7.71072 8.56418 7.4025C8.56418 7.09428 8.44221 6.79859 8.22492 6.58L7.39659 5.75167C7.1734 5.56054 6.88631 5.46066 6.59269 5.472C6.29907 5.48334 6.02054 5.60507 5.81276 5.81284C5.60498 6.02062 5.48326 6.29915 5.47192 6.59277C5.46058 6.88639 5.56045 7.17348 5.75159 7.39667L6.57992 8.225ZM20.5799 8.56333C20.886 8.56204 21.1793 8.44054 21.3966 8.225L22.2249 7.39667C22.347 7.29208 22.4462 7.16337 22.5163 7.01863C22.5863 6.87389 22.6256 6.71623 22.6318 6.55556C22.6381 6.39489 22.611 6.23467 22.5523 6.08496C22.4937 5.93524 22.4047 5.79927 22.291 5.68557C22.1773 5.57188 22.0413 5.48291 21.8916 5.42426C21.7419 5.3656 21.5817 5.33853 21.421 5.34473C21.2604 5.35094 21.1027 5.39029 20.958 5.46032C20.8132 5.53035 20.6845 5.62954 20.5799 5.75167L19.8333 6.58C19.616 6.79859 19.494 7.09428 19.494 7.4025C19.494 7.71072 19.616 8.00641 19.8333 8.225C20.0389 8.42959 20.3134 8.55021 20.6033 8.56333H20.5799ZM24.4999 12.8333H23.3333C23.0238 12.8333 22.7271 12.9563 22.5083 13.175C22.2895 13.3938 22.1666 13.6906 22.1666 14C22.1666 14.3094 22.2895 14.6062 22.5083 14.825C22.7271 15.0437 23.0238 15.1667 23.3333 15.1667H24.4999C24.8093 15.1667 25.1061 15.0437 25.3249 14.825C25.5437 14.6062 25.6666 14.3094 25.6666 14C25.6666 13.6906 25.5437 13.3938 25.3249 13.175C25.1061 12.9563 24.8093 12.8333 24.4999 12.8333ZM13.9999 22.1667C13.6905 22.1667 13.3938 22.2896 13.175 22.5084C12.9562 22.7272 12.8333 23.0239 12.8333 23.3333V24.5C12.8333 24.8094 12.9562 25.1062 13.175 25.325C13.3938 25.5438 13.6905 25.6667 13.9999 25.6667C14.3093 25.6667 14.6061 25.5438 14.8249 25.325C15.0437 25.1062 15.1666 24.8094 15.1666 24.5V23.3333C15.1666 23.0239 15.0437 22.7272 14.8249 22.5084C14.6061 22.2896 14.3093 22.1667 13.9999 22.1667ZM21.4199 19.8333C21.1983 19.71 20.9425 19.6623 20.6913 19.6975C20.4401 19.7326 20.2072 19.8486 20.0279 20.0279C19.8485 20.2073 19.7325 20.4402 19.6974 20.6914C19.6623 20.9426 19.71 21.1983 19.8333 21.42L20.6616 22.2483C20.8802 22.4656 21.1759 22.5876 21.4841 22.5876C21.7923 22.5876 22.088 22.4656 22.3066 22.2483C22.5239 22.0297 22.6458 21.734 22.6458 21.4258C22.6458 21.1176 22.5239 20.8219 22.3066 20.6033L21.4199 19.8333ZM13.9999 7.58333C12.7308 7.58333 11.4902 7.95966 10.435 8.66474C9.37979 9.36981 8.55735 10.372 8.07169 11.5444C7.58603 12.7169 7.45896 14.0071 7.70655 15.2518C7.95413 16.4965 8.56526 17.6399 9.46265 18.5373C10.36 19.4347 11.5034 20.0458 12.7481 20.2934C13.9928 20.541 15.283 20.4139 16.4555 19.9282C17.628 19.4426 18.6301 18.6201 19.3352 17.5649C20.0403 16.5097 20.4166 15.2691 20.4166 14C20.4135 12.2991 19.7365 10.6688 18.5338 9.46614C17.3311 8.26345 15.7008 7.58642 13.9999 7.58333ZM13.9999 18.0833C13.1923 18.0833 12.4028 17.8439 11.7313 17.3952C11.0598 16.9465 10.5365 16.3088 10.2274 15.5626C9.91835 14.8165 9.83749 13.9955 9.99505 13.2034C10.1526 12.4113 10.5415 11.6837 11.1126 11.1126C11.6836 10.5416 12.4112 10.1527 13.2033 9.99513C13.9954 9.83757 14.8164 9.91843 15.5625 10.2275C16.3087 10.5365 16.9464 11.0599 17.3951 11.7314C17.8438 12.4029 18.0833 13.1924 18.0833 14C18.0833 15.083 17.653 16.1216 16.8873 16.8874C16.1215 17.6531 15.0829 18.0833 13.9999 18.0833Z" fill="url(#paint0_linear_3346_80)"/>
</g>
<defs>
<linearGradient id="paint0_linear_3346_80" x1="13.9999" y1="2.33333" x2="13.9999" y2="25.6667" gradientUnits="userSpaceOnUse">
<stop stop-color="#94bc6c"/>
<stop offset="1" stop-color="#7ba650"/>
</linearGradient>
</defs>
</svg>
